<?xml version="1.0" ?><!DOCTYPE svg  PUBLIC '-//W3C//DTD SVG 1.1//EN'  'http://www.w3.org/Graphics/SVG/1.1/DTD/svg11.dtd'><svg enable-background="new 0 0 512 512" height="512px" version="1.1" viewBox="0 0 512 512" width="512px" xml:space="preserve" xmlns="http://www.w3.org/2000/svg" xmlns:xlink="http://www.w3.org/1999/xlink"><g id="Background_2_"><g id="Background_1_"><g id="Background"><circle cx="256" cy="256" fill="#ECAC56" r="256"/></g></g></g><g id="Ogi_x5F_12"><radialGradient cx="201.47" cy="407.4883" gradientUnits="userSpaceOnUse" id="SVGID_1_" r="140.9345"><stop offset="0" style="stop-color:#D38F3B"/><stop offset="1" style="stop-color:#CE9B5F;stop-opacity:0"/></radialGradient><path d="M345.942,434.941l-44.534-9.131c7.462-4.153-14.759-9.168-14.759-9.168   c-33.233-8.418-76.657-8.468-80.933-8.451c-0.011,0-0.021,0-0.031,0c-0.208,0-0.317,0.001-0.317,0.001l0.621,0.218l-0.866-0.156   c0,0-0.56,0.178-1.563,0.48l0.483-0.375c13.142-5.341,18.919-12.125,15.169-17.958c8.265,1.671,17.162,3.97,26.628,7.102   c0.121,0.021,0.209,0.05,0.305,0.076c0.058,0.017,0.126,0.031,0.177,0.049c0.115,0.04,0.212,0.085,0.294,0.132   c0.148,0.083,0.254,0.174,0.344,0.27c3.912,1.279,7.941,2.691,12.082,4.25c1.085,0.049,1.964-0.007,2.628-0.172   c1.618-0.581,1.208-1.343,0.509-2.12c-3.267-3.626-6.469-7.227-12.077-10.573c-4.381-2.615-7.007-5.44-13.773-7.571l-36.861-8.865   c2.59-1.513,4.549-3.069,5.479-4.615c-2.29-1.191-5.125-2.184-8.533-2.932c-0.516-0.112-1.042-0.219-1.577-0.318   c-0.317-0.077-0.615-0.162-0.944-0.234c-2.015-0.442-4.179-0.773-6.432-1.022c-18.019-1.984-40.196,1.854-58.213,8.225   c-0.202,0.07-0.405,0.141-0.605,0.212c-0.96,0.345-1.906,0.696-2.839,1.054c-0.539,0.206-1.069,0.414-1.598,0.625   c-0.446,0.178-0.886,0.357-1.326,0.538c-0.467,0.192-0.95,0.379-1.408,0.573c0.012-0.002,0.024-0.003,0.037-0.005   c-3.421,1.455-6.606,2.997-9.495,4.597c-0.015-0.011-0.018-0.028-0.038-0.037c-0.5-0.217-2.326,0.473-4.038,1.51   c-1.666,1.011-2.614,1.985-2.157,2.201c0.055,0.026,0.131,0.039,0.22,0.042c-11.199,7.82-14.037,15.88-8.466,21.095   c0.11,0.104,0.219,0.208,0.337,0.311c0.486,0.424,1.029,0.836,1.637,1.233c0.139,0.091,0.289,0.176,0.433,0.264   c0.134,0.093,0.258,0.188,0.398,0.28c1.259,0.823,2.727,1.551,4.373,2.188c0.327,0.085,1.355,0.182,4.15-0.715   c0.915,0.805,2.11,1.509,3.714,2.091l2.84,1.037l37.392,13.051c-0.018-0.022-0.034-0.045-0.054-0.068   c-9.043-4.382-14.988-7.481-18.898-9.681c9.766,2.168,22.657,2.899,36.264,1.618c-1.065,0.14-2.194,0.282-3.406,0.425l0.473,0.008   c-0.359,0.034-0.719,0.07-1.075,0.1l0.193,0.238l-0.199-0.108c0,0-0.014,0.017-0.035,0.039c-0.01,0.011-0.014,0.016-0.03,0.034   c-0.029,0.034-0.065,0.076-0.113,0.134c-0.026,0.031-0.055,0.068-0.086,0.106c-0.02,0.025-0.04,0.051-0.062,0.079   c-1.029,1.313-4.023,5.846-0.738,10.712c0.027,0.001,0.056,0,0.083,0.001c0.908,1.386,2.295,2.811,4.343,4.216   c0,0,5.023,3.892,14.078,5.132l7.507,6.973c0,0,6.865,4.459,44.341-2.46l-2.309-1.487c0.017-0.002,0.036-0.004,0.053-0.007   l-3.55-2.356c6.763-0.01,13.522-0.411,19.798-1.415l7.81,2.453c0.099-0.002,0.198-0.004,0.297-0.006l4.07,1.276   C372.695,442.187,345.942,434.941,345.942,434.941z" fill="url(#SVGID_1_)"/><radialGradient cx="244.0847" cy="449.625" gradientUnits="userSpaceOnUse" id="SVGID_2_" r="153.2561"><stop offset="0" style="stop-color:#D38F3B"/><stop offset="1" style="stop-color:#CE9B5F;stop-opacity:0"/></radialGradient><ellipse cx="266.842" cy="448.84" fill="url(#SVGID_2_)" rx="142.395" ry="10.681"/><path d="M254.055,436.08c-5.509,0.927-11.29,1.422-17.251,1.422c-18.176,0-34.684-4.589-46.87-12.06l-4.498,15.487   c0,0-1.761,19.147,67.524,0.617L254.055,436.08z" fill="#E9BE9D"/><path d="M278.157,420.737l3.808,16.167c5.509,0.927,11.001,1.38,16.963,1.38c18.177,0,35.057-5.016,47.242-12.487   l-11.402-40.071C313.076,413.018,278.166,420.688,278.157,420.737z" fill="#ED1C24"/><path d="M257.026,421.347l-2.97,14.733c-5.509,0.927-11.29,1.422-17.251,1.422c-18.176,0-34.684-4.589-46.87-12.06   l11.215-44.774C222.84,407.959,257.018,421.296,257.026,421.347z" fill="#ED1C24"/><path d="M350.425,440.93l-4.368-15.066c-12.177,7.434-29.008,12.421-47.129,12.421   c-5.859,0-11.54-0.484-16.963-1.38l0.937,4.643C352.187,460.077,350.425,440.93,350.425,440.93z" fill="#E9BE9D"/><path d="M310.106,407.129c-16.637,10.195-31.942,13.576-31.948,13.608l3.808,16.167l0.937,4.643   c15.229,4.073,27.022,6.325,36.16,7.36L310.106,407.129z" opacity="0.05"/><path d="M235.106,409.934l-10.392,37.867c7.778-1.266,17.086-3.269,28.246-6.254l1.096-5.467l2.97-14.733   C257.022,421.319,247.388,417.549,235.106,409.934z" opacity="0.05"/><path d="M230.281,311.103l-29.285,76.896c0,0,59.89,84.309,133.874,2.778l-29.513-79.117   C305.357,311.659,260.226,320.367,230.281,311.103z" fill="#E4D41D"/><path d="M216.081,368.164c0,27.659,22.822,50.082,50.974,50.082c28.153,0,50.975-22.423,50.975-50.082H216.081z" fill="#2B2B2B"/><g><path d="M305.357,311.659l-28.917,17.256c0,0,0.508-7.744-6.002-12.126    C263.926,312.405,273.54,318.595,305.357,311.659z" fill="#FFFFFF"/><path d="M230.281,311.103l28.472,17.813c0,0-0.509-7.744,6.002-12.126    C271.266,312.405,261.615,319.239,230.281,311.103z" fill="#FFFFFF"/></g><path d="M262.177,368.164h-46.096c0,26.041,20.233,47.435,46.096,49.849V368.164z" fill="#121212"/><path d="M262.177,368.164v-52.8c-10.829-0.132-22.146-1.245-31.896-4.262l-19.174,50.347v6.715H262.177z" opacity="0.05"/><path d="M305.357,311.659c0,0,39.81,28.836,44.462,69.57c0,0,4.401,24.684-13.485,31.528   c-17.888,6.845-27.083-5.785-26.056-8.367c1.027-2.584,6.697-7.308,6.697-7.308s4.168-3.328-2.037-6.793s-6.205-3.465-6.205-3.465   L305.357,311.659z" fill="#E9BE9D"/><path d="M343.995,359.7c-12.348-28.997-38.639-48.041-38.639-48.041l2.261,50.35   C321.331,365.466,334.6,364.335,343.995,359.7z" fill="#FFFFFF"/><path d="M229.847,311.659c0,0-39.81,28.836-44.462,69.57c0,0-4.401,24.684,13.486,31.528s27.082-5.785,26.055-8.367   c-1.027-2.584-6.697-7.308-6.697-7.308s-4.167-3.328,2.038-6.793c6.205-3.465,6.205-3.465,6.205-3.465L229.847,311.659z" fill="#DDB499"/><path d="M191.209,359.7c12.348-28.997,38.638-48.041,38.638-48.041l-2.261,50.35   C213.873,365.466,200.604,364.335,191.209,359.7z" fill="#EFEFEF"/><g><path d="M326.365,421.902l-9.065-27.358c-0.739-2.232-3.329-4.019-5.769-4.024l-87.992-0.192    c-2.316-0.004-4.701,1.721-5.319,3.887l-7.532,26.402c-0.863,3.025,0.729,5.604,3.567,5.642l108.525,1.385    C325.809,427.682,327.409,425.055,326.365,421.902z" fill="#2BBAE0"/><path d="M289.239,420.639l-1.336-9.891c-0.261-1.929-2.028-3.486-3.934-3.5l-61.271-0.431    c-1.836-0.014-3.726,1.488-4.212,3.373l-2.489,9.652c-0.553,2.144,0.631,3.954,2.644,3.978l67.329,0.812    C288.066,424.657,289.534,422.839,289.239,420.639z" fill="#231F20"/><polygon fill="#252122" points="312.153,390.678 222.785,390.479 218.866,405.388 316.864,406.035   "/><polygon fill="#D2D3D4" points="227.557,390.337 224.169,404.897 228.316,404.924 231.355,390.345   "/><polygon fill="#D2D3D4" points="275.414,390.44 271.518,390.433 272.225,405.208 276.491,405.235   "/><g><polygon fill="#E8E8E8" points="223.179,390.326 219.389,404.866 223.524,404.893 226.967,390.335    "/><polygon fill="#E8E8E8" points="227.557,390.337 224.169,404.897 228.316,404.924 231.355,390.345    "/><polygon fill="#E8E8E8" points="231.947,390.347 228.962,404.929 233.121,404.955 235.754,390.354    "/><polygon fill="#E8E8E8" points="236.347,390.355 233.769,404.959 237.94,404.986 240.165,390.364    "/><polygon fill="#E8E8E8" points="240.76,390.365 238.59,404.99 242.772,405.017 244.587,390.374    "/><polygon fill="#E8E8E8" points="244.998,390.375 243.221,405.021 247.153,405.046 248.595,390.382    "/><polygon fill="#E8E8E8" points="249.175,390.384 247.786,405.05 251.991,405.077 253.021,390.393    "/><polygon fill="#E8E8E8" points="252.647,405.081 256.864,405.108 257.476,390.402 253.619,390.394    "/><polygon fill="#E8E8E8" points="257.52,405.113 261.749,405.141 261.944,390.411 258.077,390.402    "/><polygon fill="#E8E8E8" points="262.546,390.413 262.408,405.144 266.649,405.171 266.422,390.422    "/><polygon fill="#E8E8E8" points="267.026,390.423 267.31,405.176 271.563,405.203 270.911,390.431    "/><polygon fill="#E8E8E8" points="271.518,390.433 272.225,405.208 276.491,405.235 275.414,390.44    "/><polygon fill="#E8E8E8" points="276.022,390.442 277.156,405.239 281.432,405.268 279.928,390.451    "/><polygon fill="#E8E8E8" points="280.536,390.452 282.1,405.271 286.389,405.299 284.453,390.461    "/><polygon fill="#E8E8E8" points="285.064,390.462 287.057,405.303 291.36,405.331 288.99,390.471    "/><polygon fill="#E8E8E8" points="289.602,390.472 292.03,405.336 296.344,405.363 293.54,390.48    "/><polygon fill="#E8E8E8" points="294.153,390.481 297.016,405.368 301.342,405.396 298.102,390.49    "/><polygon fill="#E8E8E8" points="298.716,390.491 302.017,405.4 306.356,405.428 302.675,390.501    "/><polygon fill="#E8E8E8" points="303.291,390.502 307.031,405.433 311.384,405.461 307.26,390.51    "/><polygon fill="#E8E8E8" points="311.858,390.521 307.877,390.512 312.062,405.465 316.426,405.493    "/></g><g><path d="M295.094,408.386l-2.524-0.019c-1.041-0.008-1.806,0.549-1.7,1.243c0.107,0.7,1.059,1.282,2.114,1.291     l2.562,0.021c1.058,0.009,1.814-0.562,1.682-1.263C297.097,408.965,296.136,408.394,295.094,408.386z" fill="#231F20"/><path d="M304.594,408.455l-2.538-0.019c-1.047-0.008-1.785,0.552-1.642,1.247     c0.146,0.702,1.133,1.287,2.194,1.296l2.576,0.021c1.063,0.008,1.794-0.563,1.623-1.267     C306.637,409.036,305.642,408.463,304.594,408.455z" fill="#231F20"/><path d="M316.44,409.807c-0.207-0.699-1.24-1.274-2.294-1.281l-2.552-0.02c-1.053-0.007-1.764,0.554-1.581,1.252     c0.184,0.704,1.208,1.291,2.275,1.3l2.59,0.021C315.948,411.086,316.651,410.513,316.44,409.807z" fill="#231F20"/></g><path d="M319.016,412.963c-0.168-0.545-0.964-0.993-1.771-0.999l-26.209-0.219    c-0.794-0.007-1.381,0.427-1.305,0.966c0.078,0.543,0.801,0.994,1.604,1.002l26.504,0.235    C318.655,413.955,319.184,413.511,319.016,412.963z" fill="#231F20"/><polygon fill="#152623" points="301.813,416.475 298.83,415.306 296.229,416.326 296.576,418.551 299.594,419.763     302.229,418.706   "/><polygon fill="#152623" points="311.785,416.57 308.725,415.398 306.165,416.422 306.634,418.654 309.734,419.87 312.324,418.81       "/><path d="M310.784,417.507c-0.154-0.604-0.985-1.1-1.858-1.107c-0.872-0.009-1.463,0.472-1.32,1.075    c0.145,0.609,0.979,1.112,1.86,1.122C310.35,418.605,310.94,418.116,310.784,417.507z" fill="#727272" opacity="0.6"/><path d="M300.743,417.202c-0.121-0.603-0.921-1.095-1.788-1.103c-0.867-0.009-1.48,0.469-1.37,1.071    c0.11,0.606,0.911,1.106,1.788,1.116C300.252,418.296,300.865,417.809,300.743,417.202z" fill="#727272" opacity="0.6"/><g><polygon fill="#424143" points="284.389,410.064 222.089,409.576 221.818,410.713 284.524,411.226    "/><polygon fill="#29AAE1" points="238.642,412.245 238.807,411.083 245.07,411.135 244.945,412.299    "/><polygon fill="#29AAE1" points="246.038,412.309 246.155,411.144 252.445,411.195 252.368,412.362    "/><polygon fill="#29AAE1" points="253.465,412.372 253.535,411.204 259.851,411.257 259.823,412.427    "/><polygon fill="#29AAE1" points="260.926,412.436 260.947,411.266 267.289,411.318 267.312,412.49    "/><polygon fill="#29AAE1" opacity="0.8" points="238.441,413.659 238.609,412.479 244.92,412.533 244.794,413.717    "/><polygon fill="#29AAE1" opacity="0.8" points="245.895,413.727 246.014,412.543 252.353,412.598 252.276,413.783    "/><polygon fill="#29AAE1" opacity="0.8" points="253.383,413.794 253.452,412.607 259.819,412.662 259.791,413.852    "/><polygon fill="#29AAE1" opacity="0.8" points="260.901,413.861 260.922,412.672 267.316,412.728 267.338,413.919    "/><polygon fill="#29AAE1" opacity="0.6" points="245.75,415.168 245.871,413.965 252.261,414.023 252.182,415.228    "/><polygon fill="#29AAE1" opacity="0.6" points="253.296,415.238 253.367,414.033 259.785,414.091 259.757,415.3    "/><polygon fill="#29AAE1" opacity="0.6" points="260.877,415.31 260.898,414.102 267.342,414.16 267.365,415.371    "/><polygon fill="#29AAE1" opacity="0.5" points="245.603,416.632 245.726,415.409 252.167,415.471 252.086,416.695    "/><polygon fill="#29AAE1" opacity="0.5" points="253.209,416.706 253.282,415.48 259.751,415.543 259.722,416.771    "/><polygon fill="#29AAE1" opacity="0.5" points="260.85,416.781 260.872,415.554 267.369,415.614 267.393,416.847    "/><polygon fill="#29AAE1" opacity="0.4" points="253.122,418.199 253.195,416.954 259.716,417.018 259.688,418.266    "/><polygon fill="#29AAE1" opacity="0.4" points="260.824,418.277 260.847,417.029 267.396,417.094 267.42,418.346    "/><polygon fill="#29AAE1" opacity="0.3" points="253.032,419.715 253.108,418.449 259.682,418.518 259.652,419.786    "/><polygon fill="#29AAE1" points="268.292,412.5 268.265,411.325 274.635,411.378 274.706,412.555    "/><polygon fill="#29AAE1" opacity="0.8" points="268.326,413.929 268.298,412.736 274.72,412.792 274.791,413.986    "/><polygon fill="#29AAE1" opacity="0.6" points="268.362,415.381 268.332,414.168 274.806,414.228 274.879,415.441    "/><polygon fill="#29AAE1" opacity="0.5" points="268.398,416.855 268.367,415.625 274.893,415.687 274.967,416.921    "/><polygon fill="#29AAE1" opacity="0.4" points="268.433,418.355 268.403,417.104 274.982,417.169 275.057,418.424    "/><polygon fill="#29AAE1" opacity="0.3" points="268.469,419.88 268.439,418.608 275.073,418.677 275.149,419.952    "/><polygon fill="#29AAE1" points="275.754,412.563 275.677,411.387 282.075,411.439 282.196,412.618    "/><polygon fill="#29AAE1" opacity="0.8" points="275.848,413.996 275.77,412.801 282.219,412.856 282.341,414.055    "/><polygon fill="#29AAE1" opacity="0.6" points="275.945,415.452 275.865,414.237 282.365,414.296 282.49,415.513    "/><polygon fill="#29AAE1" opacity="0.5" points="276.041,416.932 275.96,415.696 282.515,415.759 282.641,416.996    "/><polygon fill="#29AAE1" opacity="0.4" points="276.14,418.435 276.057,417.181 282.666,417.245 282.794,418.504    "/><polygon fill="#29AAE1" opacity="0.3" points="276.24,419.964 276.156,418.688 282.82,418.757 282.949,420.035    "/><polygon fill="#29AAE1" points="224.068,412.119 224.327,410.963 230.537,411.015 230.318,412.174    "/><polygon fill="#29AAE1" points="231.401,412.183 231.613,411.023 237.849,411.075 237.678,412.236    "/><polygon fill="#29AAE1" opacity="0.8" points="223.753,413.527 224.016,412.354 230.274,412.406 230.052,413.584    "/><polygon fill="#29AAE1" opacity="0.8" points="231.143,413.594 231.358,412.416 237.643,412.471 237.469,413.65    "/><polygon fill="#29AAE1" opacity="0.6" points="230.881,415.027 231.1,413.831 237.434,413.889 237.258,415.088    "/><polygon fill="#29AAE1" opacity="0.5" points="230.615,416.484 230.837,415.269 237.222,415.329 237.042,416.547    "/></g><g><polygon fill="#2D2C2C" points="242.724,396.307 241.567,405.146 245.258,405.171 246.225,396.32    "/><polygon fill="#2D2C2C" points="246.09,405.177 249.79,405.2 250.525,396.337 247.014,396.322    "/><polygon fill="#2D2C2C" points="251.316,396.34 250.624,405.206 254.335,405.229 254.835,396.354    "/></g><g><polygon fill="#2D2C2C" points="260.819,396.377 260.643,405.271 264.375,405.295 264.357,396.392    "/><polygon fill="#2D2C2C" points="268.702,396.408 265.155,396.395 265.217,405.301 268.96,405.324    "/></g><g><polygon fill="#2D2C2C" points="274.733,396.432 275.322,405.366 279.086,405.391 278.301,396.446    "/><polygon fill="#2D2C2C" points="279.104,396.449 279.934,405.396 283.708,405.421 282.681,396.463    "/><polygon fill="#2D2C2C" points="287.073,396.48 283.487,396.466 284.559,405.426 288.344,405.451    "/></g><g><polygon fill="#2D2C2C" points="229.065,396.253 227.173,405.054 230.833,405.077 232.539,396.267    "/><polygon fill="#2D2C2C" points="233.322,396.27 231.658,405.083 235.328,405.106 236.804,396.283    "/><polygon fill="#2D2C2C" points="219.353,405.003 220.987,405.013 223.192,396.229 221.641,396.224    "/></g><g><polygon fill="#2D2C2C" points="293.168,396.504 294.778,405.493 298.585,405.518 296.774,396.518    "/><polygon fill="#2D2C2C" points="301.201,396.535 297.586,396.521 299.443,405.523 303.26,405.548    "/></g><g><polygon fill="#2D2C2C" points="307.346,396.559 309.749,405.59 313.59,405.615 310.981,396.574    "/><polygon fill="#2D2C2C" points="313.658,396.584 312.024,396.578 314.69,405.622 316.416,405.633    "/></g><path d="M311.531,390.52l-87.992-0.192c-2.316-0.004-4.701,1.721-5.319,3.887l-7.532,26.402    c-0.537,1.883-0.123,3.592,0.951,4.623c13.926-4.67,91.879-30.813,102.101-34.241C313.026,390.704,312.274,390.521,311.531,390.52    z" fill="#121212" opacity="0.2"/></g><ellipse cx="268.112" cy="219.379" fill="#E9BE9D" rx="103.658" ry="97.28"/><path d="M262.658,122.233c-54.713,2.661-98.205,45.136-98.205,97.146s43.492,94.485,98.205,97.146V122.233z" opacity="0.05"/><path d="M317.719,161.963c3.697-0.77,7.337-1.256,10.853-1.491c-4.234-0.752-10.625-0.841-20.149-0.011   c-14.418,1.255-26.224,7.924-26.224,17.699c0,1.782,0.395,3.501,1.12,5.124C286.857,174.299,300.282,165.593,317.719,161.963z" fill="#231F20"/><path d="M225.954,161.963c-3.697-0.77-7.337-1.256-10.853-1.491c4.234-0.752,10.625-0.841,20.149-0.011   c14.418,1.255,26.225,7.924,26.225,17.699c0,1.782-0.395,3.501-1.119,5.124C256.817,174.299,243.39,165.593,225.954,161.963z" fill="#231F20"/><linearGradient gradientUnits="userSpaceOnUse" id="SVGID_3_" x1="250.7498" x2="296.5214" y1="214.3325" y2="258.0565"><stop offset="0" style="stop-color:#D6A685"/><stop offset="1" style="stop-color:#D3A383;stop-opacity:0"/></linearGradient><polygon fill="url(#SVGID_3_)" points="280.967,222.315 312.284,250.42 283.979,268.608 257.038,243.033  "/><g><path d="M272.785,264.464c-0.019-0.058-0.049-0.126-0.07-0.186c0.005,0.021,0.005,0.041,0.012,0.064    c0.016,0.069,0.049,0.139,0.07,0.178C272.792,264.503,272.791,264.482,272.785,264.464L272.785,264.464z" fill="#231F20"/></g><g><path d="M272.161,220.202c-9.117,0-16.509,7.444-16.509,16.627c0,9.182,7.392,10.54,16.509,10.54    c9.118,0,16.509-1.358,16.509-10.54C288.67,227.646,281.28,220.202,272.161,220.202z" fill="#A97D51"/><ellipse cx="278.89" cy="239.288" fill="#3C2517" rx="4.341" ry="5.438"/><ellipse cx="272.38" cy="235.849" fill="#E7E7E7" opacity="0.15" rx="0.779" ry="5.638"/><path d="M280.511,235.673c0.721,0,1.399,0.223,1.997,0.612c-0.777-1.467-2.107-2.435-3.618-2.435    c-2.397,0-4.341,2.434-4.341,5.438c0,2.101,0.952,3.919,2.344,4.825c-0.455-0.861-0.723-1.892-0.723-3.002    C276.17,238.107,278.114,235.673,280.511,235.673z" fill="#8B5F3D"/><ellipse cx="265.916" cy="239.288" fill="#3C2517" rx="4.342" ry="5.438"/><path d="M264.294,235.673c-0.721,0-1.398,0.223-1.997,0.612c0.777-1.467,2.108-2.435,3.619-2.435    c2.397,0,4.341,2.434,4.341,5.438c0,2.101-0.952,3.919-2.345,4.825c0.457-0.861,0.724-1.892,0.724-3.002    C268.636,238.107,266.692,235.673,264.294,235.673z" fill="#8B5F3D"/></g><path d="M311.131,190.031c10.127,0,18.89,4.859,23.133,11.933c0.734-1.224,1.332-2.513,1.779-3.854   c-3.031-9.103-13.033-15.787-24.912-15.787c-11.88,0-21.881,6.684-24.912,15.787c0.447,1.342,1.044,2.631,1.778,3.854   C292.24,194.891,301.002,190.031,311.131,190.031z" fill="#231F20"/><path d="M234.043,190.031c-10.128,0-18.891,4.859-23.134,11.933c-0.733-1.224-1.331-2.513-1.777-3.854   c3.03-9.103,13.032-15.787,24.912-15.787c11.879,0,21.88,6.684,24.911,15.787c-0.446,1.342-1.044,2.631-1.776,3.854   C252.933,194.891,244.17,190.031,234.043,190.031z" fill="#231F20"/><g><path d="M199.894,177.199c-31.494,4.742-50.251,5.306-61.412,4.299c-1.056,6.805-0.804,13.569,1.158,20.393    l3.369,11.824l36.979,119.465c0.046-0.124,0.093-0.246,0.136-0.376c-10.584-111.53,0.517-109.296,0.517-109.296    c1.645,0.537,1.825,2.928,2.509,4.643c4.412,11.063,8.362,22.561,13.063,33.349c1.186,2.721,2.691,5.242,5.057,4.014    C201.268,265.515,197.969,204.749,199.894,177.199z" fill="#191919"/><path d="M285.008,184.831c-0.226-2.374-0.405-4.764-0.542-7.169c-0.141-2.506,0.065-4.654,0.736-5.907    c-31.45-0.092-69.658,3.171-72.524,3.419c3.184,4.956,8.336,12.937,12.712,19.676c1.52,2.229,3.009,4.507,4.458,6.851    c2.28,3.496,4.668,7.145,7.121,10.877c1.3,1.196,8.779,13.006,11.721,16.992c5.878,7.963,11.832,16.033,16.78,25.335    c5.113,7.313,9.629,13.525,13.007,17.753c1.504,1.453,3.018,2.886,4.502,4.396c-4.681-8.248-12.632-47.937-17.605-74.602    c-4.939-19.875-4.467-24.788-4.467-24.788c2.082,2.726,2.809,6.106,3.846,9.189c5.62,10.962,11.745,21.291,17.044,32.659    c1.923,4.123,4.367,7.079,7.819,7.389C284.011,221.042,284.177,199.463,285.008,184.831z" fill="#191919"/><path d="M321.984,175.191c-5.873-2.08-16.502-3.04-28.9-3.334c1.861,0.417,4.024,0.987,6.426,1.775    c12.251,3.656,32.806,13.691,47.11,40.914c11.311,20.024,19.057,49.152,16.979,91.486c0.09,0.449,0.045,0.889-0.067,1.322    c-0.358,6.687-0.956,13.694-1.825,21.049c1.439-0.08,5.456-2.17,6.642-4.796c5.595-12.391,7.847-24.92,12.354-38.496    c9.612-28.948,11.854-71.762,11.94-104.276C364.246,190.046,321.984,175.191,321.984,175.191z" fill="#191919"/></g><path d="M263.301,193.582c-2.715-12.521-2.393-15.916-2.393-15.916c1.091,1.428,1.807,3.037,2.393,4.688v-16.827   c-27.534,1.31-55.074,9.074-63.803,11.731c-31.253,4.686-49.902,5.243-61.016,4.24c-1.056,6.805-0.804,13.569,1.158,20.393   l3.369,11.824l36.979,119.465c0.046-0.124,0.093-0.246,0.136-0.376c-10.584-111.53,0.517-109.296,0.517-109.296   c1.645,0.537,1.825,2.928,2.509,4.643c4.412,11.063,8.362,22.561,13.063,33.349c1.186,2.721,2.691,5.242,5.057,4.014   c0,0-3.234-59.588-1.428-87.5l14.275-0.606c3.167,4.92,7.507,11.639,11.276,17.442c1.52,2.229,3.009,4.507,4.458,6.851   c2.28,3.496,4.668,7.145,7.121,10.877c1.3,1.196,8.779,13.006,11.721,16.992c5.043,6.832,10.139,13.749,14.609,21.449V193.582z" opacity="0.3"/><path d="M274.557,273.225c-23.969,0.959-44.369-5.148-50.359-14.266c-0.951,1.735-1.426,3.531-1.352,5.358   c0.476,11.903,23.818,20.632,52.135,19.499c28.317-1.134,50.887-11.701,50.41-23.604c-0.073-1.827-0.69-3.579-1.776-5.233   C318.372,264.545,298.526,272.266,274.557,273.225z" fill="#A97D51"/><path d="M409.24,145.226c0-4.661-0.377-9.249-1.037-13.767c-8.466-58.054-69.741-103.105-144.121-103.105   c-73.649,0-134.444,44.172-143.853,101.399c-0.163,0.989-0.338,1.976-0.469,2.973c-0.543,4.108-0.836,8.276-0.836,12.5   c0,0.961,0.02,1.918,0.049,2.874c-0.029,0.946-0.049,1.894-0.049,2.846c0,8.539,1.168,16.855,3.328,24.875   c1.296,2.701,11.406,12.607,90.242-0.629c0,0,87.64-7.737,109.49,0c0,0,59.351,20.862,84.64-2.189   c1.695-7.146,2.617-14.513,2.617-22.057c0-0.895-0.027-1.785-0.053-2.674C409.22,147.259,409.24,146.244,409.24,145.226z" fill="#2ABBAC"/><path d="M409.24,150.945c0-0.661-0.021-1.317-0.039-1.975c-14.219,22.576-45.023,14.892-114.262,5.571   c-75.161-10.118-119.005,9.154-145.986,12.526c-18.841,2.355-26.868-10.085-30-17.81c-0.012,0.562-0.029,1.122-0.029,1.687   c0,8.539,1.168,16.855,3.328,24.875c1.296,2.701,11.406,12.607,90.242-0.629c0,0,87.64-7.737,109.49,0   c0,0,59.351,20.862,84.64-2.189C408.319,165.856,409.24,158.489,409.24,150.945z" opacity="0.1"/><path d="M264.586,28.359c-0.17,0-0.336-0.005-0.504-0.005c-73.649,0-134.444,44.172-143.853,101.399   c-0.163,0.989-0.338,1.976-0.469,2.973c-0.543,4.108-0.836,8.276-0.836,12.5c0,0.961,0.02,1.918,0.049,2.874   c-0.029,0.946-0.049,1.894-0.049,2.846c0,8.539,1.168,16.855,3.328,24.875c1.296,2.701,11.406,12.607,90.242-0.629   c0,0,25.294-2.232,52.093-3.099V28.359z" opacity="0.05"/><ellipse cx="259.859" cy="28.355" fill="#0FB9A7" rx="14.408" ry="5.084"/><path d="M199.894,177.199" fill="#010101"/></g></svg>